<svg xmlns="http://www.w3.org/2000/svg" viewBox="-0.5 -0.5 48 48" height="48" width="48"><defs></defs><title>headphones-2</title><path d="m9.11941120555 30.2854288331625 1.8182720508208332 -0.7272937463708332s1.8182720510166666 -0.727293746175 2.5455657971916663 1.0909783048416666L17.483364657916667 40.6496096716375s0.727293746175 1.8182720508208332 -1.0909783046458332 2.5455657971916663l-1.8182720510166666 0.727293746175s-1.8182720508208332 0.727293746175 -2.5455657971916663 -1.0909783046458332l-4.000115604158333 -10.000496280004166s-0.7272937463708332 -1.8182720510166666 1.0909783046458332 -2.5455657971916663" fill="none" stroke="#000000" stroke-linecap="round" stroke-linejoin="round" stroke-width="1"></path><path d="M38.1875 44.0625s5.875 -10.770833333333332 5.875 -20.5625a20.5625 20.5625 0 0 0 -41.125 0c0 9.791666666666666 5.875 20.5625 5.875 20.5625" fill="none" stroke="#000000" stroke-linecap="round" stroke-linejoin="round" stroke-width="1"></path><path d="m32.42352903451667 43.92202333697084 -1.8182720510166666 -0.7272937463708332s-1.8182720508208332 -0.727293746175 -1.0909783046458332 -2.545565796995833l4.000115604354167 -10.0004962802s0.727293746175 -1.8182720508208332 2.5455657971916663 -1.0909783046458332l1.8182720508208332 0.7272937463708332s1.8182720508208332 0.727293746175 1.0909783046458332 2.545565796995833l-4.000115604158333 10.000496280004166s-0.7272937463708332 1.8182720510166666 -2.5455657971916663 1.0909783048416666" fill="none" stroke="#000000" stroke-linecap="round" stroke-linejoin="round" stroke-width="1"></path></svg>