<svg width="50" height="50" viewBox="0 0 50 50" fill="none" xmlns="http://www.w3.org/2000/svg">
<path d="M49 38.3333V25C49 21.8483 48.3792 18.7274 47.1731 15.8156C45.967 12.9038 44.1992 10.258 41.9706 8.02944C39.742 5.80083 37.0962 4.033 34.1844 2.82689C31.2726 1.62078 28.1517 1 25 1C21.8483 1 18.7274 1.62078 15.8156 2.82689C12.9038 4.033 10.258 5.80083 8.02944 8.02944C5.80083 10.258 4.033 12.9038 2.82689 15.8156C1.62078 18.7274 1 21.8483 1 25V38.3333" stroke="white" stroke-width="1.5" stroke-linecap="round" stroke-linejoin="round"/>
<path d="M35.6666 32.8879C35.6666 31.5253 35.6666 30.8426 35.824 30.3013C36.184 29.0533 37.1306 28.1039 38.304 27.8106C41.696 26.9626 42.384 30.1146 44.8186 31.0959L45.0026 31.1706C47.648 32.2826 48.9946 35.1119 48.9893 37.9813V38.9333C48.9813 41.4666 47.6293 43.8266 45.3813 44.9919C42.8773 46.2853 42.0426 49.6639 38.408 48.8853C37.2426 48.6346 36.2826 47.7413 35.8746 46.5306C35.6666 45.9146 35.6666 45.1066 35.6666 43.5013V32.8879ZM14.3333 43.7786C14.3333 45.1413 14.3333 45.8213 14.176 46.3653C13.816 47.6133 12.8693 48.5626 11.696 48.8559C8.30397 49.7039 7.61597 46.5493 5.1813 45.5706C5.12606 45.5487 5.07095 45.5265 5.01597 45.5039C2.35464 44.3893 1.0053 41.5573 1.01064 38.6853V37.7146C1.01864 35.1919 2.36797 32.8399 4.61864 31.6746C7.12264 30.3813 7.9573 27.0026 11.592 27.7813C12.7573 28.0319 13.7173 28.9253 14.1253 30.1359C14.3333 30.7519 14.3333 31.5573 14.3333 33.1653V43.7786Z" stroke="white" stroke-width="1.5" stroke-linecap="round" stroke-linejoin="round"/>
</svg>
