<svg width="64" height="64" viewBox="0 0 64 64" fill="none" xmlns="http://www.w3.org/2000/svg">
<g filter="url(#filter0_i_10_62)">
<path d="M27.131 37.7086C27.131 36.913 27.0875 36.2522 26.8006 35.7227C26.5018 35.1715 25.9913 34.8468 25.298 34.5716C22.8425 33.1269 20.6581 31.2073 18.857 28.909L18.1835 28.0496L17.9729 29.121C17.7867 30.068 17.693 31.0329 17.6935 32.0002H17.6934L17.6936 32.0108C17.767 35.4234 18.8818 38.7211 20.8737 41.4036C22.8661 44.0866 25.6289 46.0098 28.7474 46.8744L29.3114 47.0308L29.3778 46.4493C29.5102 45.2885 29.3957 44.1106 29.0423 43.0024L29.013 42.9104L28.9516 42.836C27.7852 41.4228 27.1359 39.6011 27.131 37.7086ZM27.131 37.7086C27.131 37.7087 27.131 37.7089 27.131 37.7091H26.631M27.131 37.7086C27.131 37.7083 27.131 37.7081 27.131 37.7078L26.631 37.7091M26.631 37.7091C26.636 39.7141 27.3236 41.649 28.566 43.1543L18.8785 29.7324C20.6429 31.862 22.7401 33.6521 25.0785 35.0225C26.4285 35.5502 26.631 36.1019 26.631 37.7091ZM33.3642 14.509L33.381 14.5095L33.3978 14.509C37.8784 14.3585 42.2382 16.1094 45.5186 19.3882C48.7967 22.6645 50.7282 27.199 50.8807 32C50.7282 36.801 48.7967 41.3355 45.5186 44.6118C42.2382 47.8906 37.8784 49.6415 33.3978 49.4911L33.381 49.4905L33.3642 49.4911C28.8836 49.6415 24.5238 47.8906 21.2433 44.6118C17.9653 41.3355 16.0338 36.801 15.8812 32C16.0338 27.199 17.9653 22.6645 21.2433 19.3882C24.5238 16.1094 28.8836 14.3585 33.3642 14.509ZM48.3526 30.8048L49.053 30.9869L48.9756 30.2674C48.7113 27.8091 47.863 25.461 46.5085 23.4454L46.2474 23.0569L45.8426 23.2917C45.3051 23.6036 44.8169 24.0008 44.3947 24.4688L44.3653 24.5014L44.342 24.5386C44.2797 24.6383 44.1906 24.7762 44.0907 24.9309C43.9353 25.1715 43.7536 25.4527 43.6058 25.6935C43.4788 25.9004 43.3577 26.1074 43.2713 26.2806C43.2288 26.3658 43.1873 26.4573 43.1587 26.5444C43.1444 26.5878 43.1289 26.6433 43.1207 26.7047C43.1136 26.7576 43.1047 26.8647 43.1468 26.9846C43.1817 27.0838 43.2358 27.178 43.2739 27.2417C43.295 27.2772 43.3173 27.313 43.3375 27.3455L43.3411 27.3512C43.3607 27.3827 43.3786 27.4115 43.3959 27.4401C43.4337 27.5027 43.4588 27.5487 43.4739 27.583C43.4758 27.5872 43.4773 27.5908 43.4785 27.5939V27.6962L43.5454 27.8122C43.902 28.43 44.2921 29.0916 44.6426 29.5911C44.6649 29.6259 44.7042 29.6818 44.7676 29.7383C44.8336 29.7972 44.9055 29.839 44.9738 29.8718C45.1011 29.9331 45.2883 29.9969 45.568 30.0803L45.5765 30.0829L45.5851 30.0851L48.3526 30.8048ZM33.8288 17.2301L34.1805 16.5218L33.3899 16.5078C30.4317 16.4551 27.5214 17.2884 24.9898 18.9095C22.4587 20.5303 20.4091 22.8728 19.0701 25.6671L18.9426 25.9331L19.1138 26.1734C20.9432 28.7394 23.1986 30.929 25.7698 32.6327L25.8259 32.6698L25.8897 32.6908C26.8417 33.004 27.6667 33.6687 28.213 34.576C28.7596 35.4839 28.9893 36.5725 28.8572 37.6482L28.8531 37.6813L28.8535 37.7147C28.8688 39.0598 29.3191 40.3615 30.1335 41.3997C30.973 42.8091 31.3411 44.4843 31.1735 46.1507L31.1303 46.5804L31.5491 46.6856C32.3378 46.8838 33.1505 46.9532 33.9592 46.8912L34.2971 46.8652L34.3982 46.5418C34.5746 45.9776 34.8184 45.2683 35.0859 44.5312C35.5202 43.437 35.8865 42.3137 36.1826 41.1685L36.1878 41.1484L36.1913 41.1279C36.4329 39.72 37.1351 38.456 38.1646 37.5582L38.208 37.5203L38.2417 37.4735C38.465 37.1634 38.6104 36.8014 38.6673 36.4206C38.7106 36.1647 38.6965 35.9014 38.6257 35.6518C38.558 35.4132 38.4399 35.1917 38.2782 35.0047C37.9736 34.5522 37.5664 34.1835 37.0903 33.9346C36.607 33.6819 36.0699 33.5617 35.5288 33.5869H31.8029C30.55 33.3725 29.3529 32.8729 28.293 32.1201L28.2773 32.109L28.2608 32.099C27.1535 31.4343 26.1486 30.5891 25.2828 29.593C25.0941 29.3555 24.9614 29.0694 24.8989 28.7595C24.8359 28.4474 24.8467 28.1234 24.9299 27.8173C25.0395 27.4379 25.2347 27.0963 25.4952 26.8219C25.7563 26.547 26.0746 26.3483 26.42 26.2405L26.4281 26.2379L26.4361 26.2352L27.8761 25.7314L27.8784 25.7306L28.4184 25.5387L28.4198 25.5382C28.7113 25.4337 29.0094 25.3524 29.3118 25.2949L29.7185 25.2176V24.8037V24.6358V24.5748L29.7038 24.5156C29.6125 24.1467 29.5991 23.7602 29.665 23.3848C29.7306 23.0106 29.8728 22.6586 30.0797 22.3536C30.2501 22.112 30.4674 21.917 30.7136 21.7809C30.9586 21.6455 31.2269 21.5711 31.4992 21.5616H31.761H32.6939L32.1773 20.7847C31.9826 20.4919 31.8873 20.1316 31.9127 19.7664C31.9379 19.4044 32.0794 19.0677 32.3068 18.8119L32.8709 18.2306L33.0277 18.8433L33.6263 17.6379L33.8288 17.2301ZM36.4135 46.5845V47.2014L37.017 47.0737C40.0943 46.4223 42.8977 44.7613 45.0364 42.3301C47.1747 39.8992 48.5423 36.8198 48.9522 33.525L49.0088 33.0699L48.5602 32.9742C47.3117 32.708 45.5807 32.329 45.1081 32.1915L45.0787 32.183L45.0486 32.1781C44.2979 32.0563 43.6099 31.6362 43.1263 30.9908C42.73 30.4035 42.2914 29.7013 41.8976 28.9783L41.8802 28.9463L41.8583 28.9172C41.5612 28.5216 41.3611 28.0495 41.2793 27.5445C41.1991 27.0493 41.2357 26.541 41.385 26.0659C41.7928 25.1955 42.2555 24.3559 42.7701 23.5529C43.2283 22.9381 43.7833 22.4156 44.4088 22.0084L44.9258 21.6718L44.4894 21.2357C42.0977 18.8456 39.0737 17.2881 35.821 16.7776L35.1474 16.6719L35.2491 17.3461C35.2902 17.6188 35.2759 17.8977 35.2073 18.1635C35.1389 18.4288 35.0184 18.6733 34.8558 18.8811C34.6405 19.1526 34.4081 19.4078 34.1603 19.6449L33.8281 19.9627L34.117 20.3204C34.3241 20.5767 34.4652 20.8905 34.5225 21.2299C34.5776 21.5561 34.5528 21.8916 34.4513 22.2032C34.2025 22.6489 33.8489 23.0118 33.4299 23.2577C33.0001 23.5099 32.5164 23.6303 32.0308 23.6085L31.3488 23.578L31.5255 24.2375C31.7006 24.8907 31.982 25.8623 32.2285 26.5898V26.9386V27.0171L32.2525 27.0918C32.3342 27.3456 32.3247 27.6234 32.2267 27.8693C32.1304 28.1109 31.9583 28.2985 31.7509 28.4048C31.5434 28.4935 31.3145 28.498 31.1045 28.4179C30.8901 28.336 30.7033 28.1684 30.5882 27.9383L30.5827 27.9274L30.5767 27.9167L30.3742 27.5569L30.242 27.322L29.973 27.3033C29.6039 27.2778 29.2357 27.3471 28.8998 27.5037L28.3254 27.6852L28.3153 27.6884L28.3054 27.692L27.2479 28.0758L26.5056 28.3452L27.0666 28.901C28.3996 30.2218 30.0168 31.1796 31.7797 31.6888L31.8477 31.7084H31.9185H35.496H35.507L35.5179 31.7079C36.2906 31.674 37.0611 31.8323 37.7689 32.1719C38.4769 32.5115 39.1041 33.0239 39.5988 33.671L39.6105 33.6863L39.6233 33.7006C39.9397 34.0545 40.1866 34.4753 40.3473 34.9381C40.508 35.401 40.5785 35.8948 40.5541 36.389L40.554 36.389L40.5537 36.3985C40.5217 37.4479 40.115 38.4385 39.4255 39.1698C38.7409 39.7636 38.2656 40.5789 38.0684 41.4842C37.7625 42.7708 37.357 44.0279 36.8562 45.2425L36.8512 45.2547L36.8468 45.2672C36.8089 45.3748 36.765 45.4701 36.7121 45.5848C36.6803 45.6536 36.6453 45.7295 36.6065 45.8192C36.5197 46.0196 36.4135 46.2935 36.4135 46.5845Z" fill="white" stroke="#252B48"/>
<path d="M13.8298 18.4572C13.6738 18.3017 13.4888 18.1784 13.2852 18.0944C13.0816 18.0104 12.8635 17.9674 12.6432 17.9678C12.423 17.9682 12.205 18.0119 12.0017 18.0966C11.7984 18.1813 11.6138 18.3053 11.4584 18.4614C10.8048 19.1153 10.7996 20.1778 11.4542 20.8338C11.6102 20.9893 11.7953 21.1126 11.9989 21.1966C12.2024 21.2806 12.4206 21.3236 12.6408 21.3232C12.861 21.3228 13.079 21.2791 13.2823 21.1944C13.4856 21.1097 13.6703 20.9857 13.8257 20.8296C13.9817 20.6742 14.1056 20.4895 14.1902 20.2861C14.2749 20.0827 14.3187 19.8646 14.319 19.6443C14.3194 19.424 14.2764 19.2057 14.1925 19.0021C14.1085 18.7984 13.9853 18.6132 13.8298 18.4572ZM12.1906 19.1918C12.3106 19.071 12.4737 19.0028 12.644 19.0022C12.8142 19.0016 12.9778 19.0687 13.0986 19.1887C13.2184 19.3097 13.2853 19.4734 13.2845 19.6438C13.2838 19.8141 13.2154 19.9772 13.0945 20.0971C12.9746 20.2181 12.8116 20.2865 12.6413 20.2873C12.4711 20.288 12.3074 20.2211 12.1865 20.1013C12.0666 19.9802 11.9998 19.8165 12.0005 19.6462C12.0013 19.4759 12.0697 19.3117 12.1906 19.1918ZM8.23063 16.5473C8.32794 16.2382 8.49833 15.9573 8.72734 15.7281C8.95635 15.499 9.23723 15.3286 9.54613 15.2312C10.4192 14.9562 11.351 14.9259 12.2401 15.1437C13.1292 15.3615 13.9416 15.8191 14.5889 16.4666L15.2394 17.1184C15.6912 16.9239 16.1909 16.8694 16.6739 16.962C17.157 17.0546 17.6011 17.29 17.949 17.6378L18.7619 18.45C18.8101 18.498 18.8483 18.5551 18.8744 18.618C18.9004 18.6808 18.9138 18.7482 18.9138 18.8162C18.9138 18.8843 18.9004 18.9517 18.8744 19.0145C18.8483 19.0774 18.8101 19.1344 18.7619 19.1825L17.8828 20.0619C17.9516 20.3241 17.9505 20.5996 17.8797 20.8612C17.809 21.1227 17.671 21.3612 17.4795 21.5529L17.3068 21.7256L18.1062 22.2036C18.1738 22.244 18.2313 22.2993 18.2742 22.3652C18.3172 22.4312 18.3446 22.5061 18.3543 22.5842C18.3639 22.6623 18.3557 22.7416 18.3301 22.8161C18.3045 22.8905 18.2622 22.9581 18.2066 23.0138L16.0109 25.2103C15.9553 25.266 15.8877 25.3083 15.8133 25.3339C15.7389 25.3595 15.6596 25.3678 15.5815 25.3581C15.5034 25.3484 15.4286 25.321 15.3627 25.278C15.2967 25.235 15.2415 25.1775 15.2012 25.1099L14.7234 24.3112L14.5506 24.483C14.1473 24.8875 13.5754 25.022 13.0593 24.8865L12.1803 25.7659C12.0833 25.8629 11.9518 25.9174 11.8147 25.9174C11.6775 25.9174 11.546 25.8629 11.4491 25.7659L10.6372 24.9537C10.2894 24.6058 10.0539 24.1615 9.96113 23.6782C9.86839 23.195 9.92269 22.695 10.117 22.243L9.4665 21.5911C8.81926 20.9438 8.36183 20.1313 8.14393 19.242C7.92604 18.3527 7.95602 17.4207 8.23063 16.5473ZM9.85639 16.2183C9.7062 16.2657 9.56967 16.3486 9.45839 16.4601C9.34712 16.5716 9.2644 16.7084 9.21726 16.8587C8.9994 17.5515 8.97551 18.2907 9.14818 18.9961C9.32085 19.7015 9.68348 20.346 10.1966 20.8597L13.0872 23.7515C13.1842 23.8484 13.3157 23.9029 13.4528 23.9029C13.59 23.9029 13.7215 23.8484 13.8184 23.7515L16.7473 20.8214C16.8442 20.7244 16.8987 20.5928 16.8987 20.4556C16.8987 20.3185 16.8442 20.1869 16.7473 20.0899L13.8567 17.1991C13.3432 16.6855 12.6987 16.3226 11.9934 16.1499C11.2881 15.9771 10.549 16.0011 9.85639 16.2193V16.2183ZM10.9568 23.0831C10.9185 23.4897 11.055 23.9108 11.3674 24.2222L11.8141 24.6692L12.1782 24.305L10.9568 23.0831ZM17.2179 18.3693C17.07 18.2212 16.8913 18.1076 16.6944 18.0365C16.4976 17.9655 16.2875 17.9389 16.0792 17.9585L17.2996 19.1794L17.6646 18.8162L17.2179 18.3693ZM15.4763 23.557L15.7472 24.0091L17.0048 22.751L16.5518 22.4799L15.4763 23.557ZM17.465 25.202C17.417 25.154 17.3788 25.097 17.3528 25.0342C17.3267 24.9714 17.3133 24.9041 17.3132 24.8361C17.3132 24.7682 17.3265 24.7008 17.3525 24.638C17.3784 24.5752 17.4165 24.5181 17.4645 24.47C17.5125 24.4219 17.5695 24.3838 17.6323 24.3577C17.695 24.3316 17.7623 24.3182 17.8303 24.3182C17.8982 24.3181 17.9655 24.3315 18.0283 24.3574C18.0911 24.3834 18.1481 24.4215 18.1962 24.4695L19.5614 25.8352C19.6094 25.8833 19.6476 25.9403 19.6736 26.0031C19.6997 26.0659 19.7131 26.1332 19.7132 26.2011C19.7132 26.2691 19.6999 26.3364 19.6739 26.3992C19.648 26.462 19.6099 26.5191 19.5619 26.5672C19.5139 26.6153 19.4569 26.6535 19.3941 26.6796C19.3313 26.7056 19.2641 26.719 19.1961 26.7191C19.1282 26.7191 19.0609 26.7058 18.9981 26.6798C18.9353 26.6539 18.8783 26.6158 18.8302 26.5678L17.465 25.202ZM18.5634 23.3718C18.4664 23.4688 18.412 23.6003 18.412 23.7375C18.412 23.8747 18.4664 24.0062 18.5634 24.1032L19.1115 24.6516C19.1593 24.7009 19.2164 24.7403 19.2795 24.7673C19.3426 24.7943 19.4105 24.8085 19.4792 24.809C19.5478 24.8095 19.6159 24.7963 19.6794 24.7702C19.7429 24.7441 19.8006 24.7056 19.8491 24.6569C19.8975 24.6083 19.9359 24.5505 19.9618 24.4869C19.9877 24.4233 20.0007 24.3551 20 24.2865C19.9993 24.2178 19.9849 24.1499 19.9577 24.0868C19.9306 24.0238 19.8911 23.9667 19.8416 23.9191L19.2935 23.3718C19.1966 23.2751 19.0653 23.2208 18.9284 23.2208C18.7916 23.2208 18.6603 23.2751 18.5634 23.3718ZM16.3677 26.2998C16.3184 26.2521 16.279 26.195 16.2519 26.1319C16.2248 26.0687 16.2105 26.0009 16.2099 25.9322C16.2093 25.8635 16.2224 25.7954 16.2484 25.7318C16.2744 25.6682 16.3128 25.6104 16.3613 25.5619C16.4099 25.5133 16.4676 25.4749 16.5312 25.4489C16.5947 25.4229 16.6628 25.4098 16.7315 25.4104C16.8001 25.411 16.868 25.4252 16.9311 25.4524C16.9942 25.4795 17.0512 25.5189 17.0989 25.5683L17.6471 26.1166C17.6951 26.1647 17.7331 26.2218 17.7591 26.2847C17.785 26.3475 17.7984 26.4148 17.7983 26.4828C17.7982 26.62 17.7436 26.7517 17.6465 26.8487C17.5494 26.9457 17.4178 27.0001 17.2806 27C17.1434 26.9999 17.0118 26.9453 16.9148 26.8481L16.3677 26.2998Z" fill="white"/>
<g filter="url(#filter1_d_10_62)">
<path d="M19 27L21.5 29.5L22.7453 30.7453C23.9107 31.9107 25.2146 32.9288 26.6278 33.7767V33.7767C28.5296 34.9177 30.6066 35.7371 32.7751 36.2018L33.7747 36.416C35.5865 36.8042 37.4342 37 39.2872 37H42.5H44.114C45.6918 37 47.2567 36.7162 48.7341 36.1622L49.9785 35.6956C50.3244 35.5659 50.65 35.3875 50.9456 35.1658V35.1658C51.9241 34.4319 52.5 33.2801 52.5 32.057V31V31C52.5 29.4262 51.759 27.9443 50.5 27V27" stroke="white" stroke-linecap="round"/>
</g>
</g>
<defs>
<filter id="filter0_i_10_62" x="-1" y="-1" width="65" height="65" filterUnits="userSpaceOnUse" color-interpolation-filters="sRGB">
<feFlood flood-opacity="0" result="BackgroundImageFix"/>
<feBlend mode="normal" in="SourceGraphic" in2="BackgroundImageFix" result="shape"/>
<feColorMatrix in="SourceAlpha" type="matrix" values="0 0 0 0 0 0 0 0 0 0 0 0 0 0 0 0 0 0 127 0" result="hardAlpha"/>
<feOffset dx="-1" dy="-1"/>
<feGaussianBlur stdDeviation="1.55"/>
<feComposite in2="hardAlpha" operator="arithmetic" k2="-1" k3="1"/>
<feColorMatrix type="matrix" values="0 0 0 0 0.601667 0 0 0 0 0.601667 0 0 0 0 0.601667 0 0 0 0.25 0"/>
<feBlend mode="normal" in2="shape" result="effect1_innerShadow_10_62"/>
</filter>
<filter id="filter1_d_10_62" x="15.5" y="25.5" width="40.5" height="17" filterUnits="userSpaceOnUse" color-interpolation-filters="sRGB">
<feFlood flood-opacity="0" result="BackgroundImageFix"/>
<feColorMatrix in="SourceAlpha" type="matrix" values="0 0 0 0 0 0 0 0 0 0 0 0 0 0 0 0 0 0 127 0" result="hardAlpha"/>
<feOffset dy="2"/>
<feGaussianBlur stdDeviation="1.5"/>
<feComposite in2="hardAlpha" operator="out"/>
<feColorMatrix type="matrix" values="0 0 0 0 0 0 0 0 0 0 0 0 0 0 0 0 0 0 0.7 0"/>
<feBlend mode="normal" in2="BackgroundImageFix" result="effect1_dropShadow_10_62"/>
<feBlend mode="normal" in="SourceGraphic" in2="effect1_dropShadow_10_62" result="shape"/>
</filter>
</defs>
</svg>
