<svg width="20" height="16" viewBox="0 0 20 16" fill="none" xmlns="http://www.w3.org/2000/svg">
<path d="M2 16.0005C1.45 16.0005 0.979333 15.8048 0.588 15.4135C0.196667 15.0222 0.000666667 14.5512 0 14.0005V2.00049C0 1.45049 0.196 0.979821 0.588 0.588488C0.98 0.197155 1.45067 0.00115495 2 0.000488281H18C18.55 0.000488281 19.021 0.196488 19.413 0.588488C19.805 0.980488 20.0007 1.45115 20 2.00049V14.0005C20 14.5505 19.8043 15.0215 19.413 15.4135C19.0217 15.8055 18.5507 16.0012 18 16.0005H2ZM10 9.00049L18 4.00049V2.00049L10 7.00049L2 2.00049V4.00049L10 9.00049Z" fill="white"/>
</svg>
