<svg width="50" height="50" viewBox="0 0 50 50" fill="none" xmlns="http://www.w3.org/2000/svg">
<path d="M42.4806 27.9958C43.688 27.9739 44.9004 28.0549 46.1078 27.9571C47.6832 27.7614 48.973 25.7847 48.9853 23.6175C49.0149 17.8224 48.9829 12.0307 48.9989 6.23563C49.0087 5.31138 48.9583 4.35678 48.6506 3.51855C48.1152 1.89606 46.7982 0.921221 45.5256 1.00555C39.8135 1.00892 34.1002 1.00386 28.3881 1.00892C26.9149 0.927967 25.4712 2.34132 25.1241 4.33485C24.905 5.77856 25.0453 7.26781 25.0121 8.72839M42.4806 27.9958C41.7422 27.9942 41.0037 28.0026 40.2652 28.0144C36.7636 28.0414 33.262 28.006 29.7629 28.0279C29.1918 27.984 28.8927 28.7683 28.5161 29.2254C27.3469 30.8057 26.249 32.4956 25.0133 33.9815C24.9542 26.6331 24.9825 19.2796 24.9998 11.9278C25.0117 10.862 25.0158 9.79434 25.0121 8.72839M42.4806 27.9958C42.4117 33.3996 42.4745 38.8068 42.4486 44.2089C42.5089 45.5245 41.7225 46.7084 40.7994 46.8923C40.0424 47.0609 39.4037 46.3661 38.7477 45.9815C36.4633 44.4265 33.8897 43.7839 31.3543 43.8952C27.8737 44.1111 24.4988 46.0304 21.7874 49.0005C21.0071 48.3545 20.3055 47.5433 19.5178 46.9142C16.6809 44.6508 13.3479 43.4398 10.0654 43.9087C7.83767 44.133 5.70717 45.2242 3.74038 46.6376C2.53667 47.5736 0.91572 46.081 1.01295 44.2089C0.99449 33.8112 1.01295 23.41 1.00311 13.0123C0.974797 12.0256 1.13234 10.8754 1.7945 10.3188C6.73488 6.56451 12.8593 5.96746 18.1566 8.60527C19.4009 9.09775 20.516 10.022 21.6828 10.7691C22.7954 10.1502 23.8613 9.2799 25.0121 8.72839M21.6828 13.2821C21.7382 22.5162 21.764 35.8772 21.7874 45.1112M4.81116 19.2493H17.812M4.81116 35.1655H9.14476M4.81116 23.2296H10.5897M4.81116 27.2099H17.812M13.4796 31.1869H17.812M4.81116 31.1869H10.5897M13.4784 23.2296H17.812M12.0347 35.1655H17.812M30.814 7.31504H43.8148M30.814 11.2937H36.5925M30.814 15.2723H43.8148M39.4812 19.2509H43.8148M30.814 19.2509H36.5925M39.4812 11.2937H43.8148" stroke="#F8F8F8" stroke-width="2" stroke-linecap="round" stroke-linejoin="round"/>
</svg>
