<svg width="50" height="50" viewBox="0 0 50 50" fill="none" xmlns="http://www.w3.org/2000/svg">
<path d="M21.2105 20.2005C26.7915 20.2005 31.3158 15.9024 31.3158 10.6005C31.3158 5.29855 26.7915 1.00049 21.2105 1.00049C15.6296 1.00049 11.1053 5.29855 11.1053 10.6005C11.1053 15.9024 15.6296 20.2005 21.2105 20.2005Z" stroke="white" stroke-width="2"/>
<path d="M41.4211 38.2005C41.4211 44.1645 41.4211 49.0005 21.2105 49.0005C1 49.0005 1 44.1645 1 38.2005C1 32.2365 10.0493 27.4005 21.2105 27.4005C32.3718 27.4005 41.4211 32.2365 41.4211 38.2005Z" stroke="white" stroke-width="2"/>
<path d="M43.9473 1.00049C43.9473 1.00049 49 3.88049 49 10.6005C49 17.3205 43.9473 20.2005 43.9473 20.2005M38.8947 5.80049C38.8947 5.80049 41.421 7.24049 41.421 10.6005C41.421 13.9605 38.8947 15.4005 38.8947 15.4005" stroke="white" stroke-width="2" stroke-linecap="round"/>
</svg>
