<svg width="16" height="19" viewBox="0 0 16 19" fill="none" xmlns="http://www.w3.org/2000/svg">
<path d="M12.44 3.76922C11.7564 2.98884 11.3797 1.98665 11.38 0.949219H8.29V13.3492C8.26617 14.0202 7.98287 14.6558 7.49977 15.1222C7.01666 15.5885 6.37145 15.8491 5.7 15.8492C4.28 15.8492 3.1 14.6892 3.1 13.2492C3.1 11.5292 4.76 10.2392 6.47 10.7692V7.60922C3.02 7.14922 0 9.82922 0 13.2492C0 16.5792 2.76 18.9492 5.69 18.9492C8.83 18.9492 11.38 16.3992 11.38 13.2492V6.95922C12.633 7.85907 14.1374 8.34187 15.68 8.33922V5.24922C15.68 5.24922 13.8 5.33922 12.44 3.76922Z" fill="white"/>
</svg>
