<svg width="50" height="50" viewBox="0 0 50 50" fill="none" xmlns="http://www.w3.org/2000/svg">
<path d="M25 49.0005H49M33 6.94766L41 15.3582M37 2.74237C38.0609 1.62706 39.4997 1.00049 41 1.00049C41.7429 1.00049 42.4785 1.15432 43.1648 1.45319C43.8511 1.75206 44.4747 2.19013 45 2.74237C45.5253 3.29462 45.942 3.95023 46.2263 4.67177C46.5105 5.39332 46.6569 6.16666 46.6569 6.94766C46.6569 7.72865 46.5105 8.502 46.2263 9.22354C45.942 9.94508 45.5253 10.6007 45 11.1529L11.6667 46.197L1 49.0005L3.66667 37.7864L37 2.74237Z" stroke="white" stroke-width="2" stroke-linecap="round" stroke-linejoin="round"/>
</svg>
