<svg width="20" height="15" viewBox="0 0 20 15" fill="none" xmlns="http://www.w3.org/2000/svg">
<path d="M8 10.9492L13.19 7.94922L8 4.94922V10.9492ZM19.56 3.11922C19.69 3.58922 19.78 4.21922 19.84 5.01922C19.91 5.81922 19.94 6.50922 19.94 7.10922L20 7.94922C20 10.1392 19.84 11.7492 19.56 12.7792C19.31 13.6792 18.73 14.2592 17.83 14.5092C17.36 14.6392 16.5 14.7292 15.18 14.7892C13.88 14.8592 12.69 14.8892 11.59 14.8892L10 14.9492C5.81 14.9492 3.2 14.7892 2.17 14.5092C1.27 14.2592 0.69 13.6792 0.44 12.7792C0.31 12.3092 0.22 11.6792 0.16 10.8792C0.0900001 10.0792 0.0599999 9.38922 0.0599999 8.78922L0 7.94922C0 5.75922 0.16 4.14922 0.44 3.11922C0.69 2.21922 1.27 1.63922 2.17 1.38922C2.64 1.25922 3.5 1.16922 4.82 1.10922C6.12 1.03922 7.31 1.00922 8.41 1.00922L10 0.949219C14.19 0.949219 16.8 1.10922 17.83 1.38922C18.73 1.63922 19.31 2.21922 19.56 3.11922Z" fill="white"/>
</svg>
